<?xml version="1.0" encoding="utf-8"?>
<!-- Generator: Adobe Illustrator 17.0.0, SVG Export Plug-In . SVG Version: 6.00 Build 0)  -->
<!DOCTYPE svg PUBLIC "-//W3C//DTD SVG 1.1//EN" "http://www.w3.org/Graphics/SVG/1.1/DTD/svg11.dtd">
<svg version="1.1" id="Layer_1" xmlns="http://www.w3.org/2000/svg" xmlns:xlink="http://www.w3.org/1999/xlink" x="0px" y="0px"
	 width="938.572px" height="864.57px" viewBox="191.335 0 938.572 864.57" enable-background="new 191.335 0 938.572 864.57"
	 xml:space="preserve">
<g>
	<g>
		<path d="M1128.38,597.507c1.446-3.872,1.956-8.134,0.625-12.436l-77.315-251.264V101.982c0-53.889-43.84-97.767-97.767-97.767
			H367.317c-53.929,0-97.767,43.878-97.767,97.767v231.827l-77.315,251.262c-1.329,4.262-0.821,8.526,0.625,12.436
			c-0.939,4.147-1.525,8.409-1.525,12.867v156.428v78.215c0,10.794,8.761,19.554,19.554,19.554h78.215
			c10.792,0,19.552-8.761,19.552-19.554v-58.661h703.927v58.661c0,10.794,8.761,19.554,19.554,19.554h78.215
			c10.794,0,19.554-8.761,19.554-19.554v-78.215V610.373C1129.905,605.915,1129.318,601.653,1128.38,597.507z M308.656,101.982
			c0-32.342,26.318-58.661,58.661-58.661h586.606c32.342,0,58.661,26.318,58.661,58.661V317.07h-53.147l-18.223-72.895
			c-6.57-26.163-29.996-44.426-56.941-44.426H758.387c-32.342,0-58.661,26.318-58.661,58.661v58.661h-78.215v-58.622
			c0-32.342-26.318-58.661-58.661-58.661H436.965c-26.945,0-50.369,18.302-56.939,44.426l-18.223,72.856h-53.147V101.982z
			 M919.275,348.668c-3.754,4.772-9.386,7.509-15.448,7.509h-145.44c-10.755,0-19.554-8.761-19.554-19.554V258.41
			c0-10.794,8.799-19.554,19.554-19.554h125.924c8.995,0,16.777,6.062,18.967,14.782l19.554,78.215
			C924.32,337.757,923.029,343.858,919.275,348.668z M582.445,258.41v78.019c0,0.079-0.039,0.117-0.039,0.196
			c0,0.038,0,0.079,0,0.079c-0.038,10.755-8.799,19.475-19.514,19.475h-145.44c-6.101,0-11.694-2.737-15.448-7.509
			c-3.754-4.81-5.045-10.949-3.558-16.815l19.554-78.215c2.191-8.682,9.972-14.782,19.006-14.782h125.886
			C573.646,238.856,582.445,247.616,582.445,258.41z M303.533,356.177h58.857c2.073,5.866,4.772,11.497,8.72,16.581
			c11.263,14.313,28.119,22.526,46.303,22.526h145.44c25.459,0,46.967-16.425,55.062-39.106h85.41
			c8.095,22.722,29.603,39.106,55.062,39.106h145.44c18.185,0,35-8.212,46.263-22.526c3.95-5.045,6.649-10.715,8.72-16.581h58.895
			l60.382,196.24c-2.267-0.273-4.497-0.704-6.843-0.704H249.996c-2.346,0-4.576,0.431-6.805,0.704L303.533,356.177z M269.55,825.462
			h-39.108v-39.107h39.106v39.107H269.55z M1090.798,825.462h-39.106v-39.107h39.106V825.462z M1090.798,747.249H230.441V610.373
			c0-10.794,8.799-19.554,19.554-19.554h821.249c10.755,0,19.554,8.761,19.554,19.554V747.249z"/>
	</g>
</g>
</svg>
