<?xml version="1.0" encoding="utf-8"?>
<!-- Generator: Adobe Illustrator 17.0.0, SVG Export Plug-In . SVG Version: 6.00 Build 0)  -->
<!DOCTYPE svg PUBLIC "-//W3C//DTD SVG 1.1//EN" "http://www.w3.org/Graphics/SVG/1.1/DTD/svg11.dtd">
<svg version="1.1" id="Capa_1" xmlns="http://www.w3.org/2000/svg" xmlns:xlink="http://www.w3.org/1999/xlink" x="0px" y="0px"
	 width="1356.619px" height="864.57px" viewBox="0 0 1356.619 864.57" enable-background="new 0 0 1356.619 864.57"
	 xml:space="preserve">
<g>
	<g>
		<path d="M1286.006,358.138l-108.974-57.413l-96.186-177.05c-27.8-51.319-76.727-82.431-129.268-82.11H541.813
			c-47.537,0-92.572,25.339-121.484,68.96L296.065,298.159L88.959,363.59C36.417,380.269,0,435.757,0,498.623v91.412
			c0,77.299,53.375,141.127,120.372,141.127h17.792c21.406,95.261,105.638,152.353,188.203,127.655
			c54.209-16.358,96.742-65.111,110.642-127.655h467.032c21.406,95.261,105.638,152.353,188.203,127.655
			c54.209-16.358,96.742-65.111,110.642-127.655h33.359c66.997,0,120.372-63.828,120.372-141.127V485.793
			C1356.895,430.946,1329.095,380.91,1286.006,358.138z M287.447,799.8c-54.487,0-98.688-50.998-98.688-113.864
			s44.201-113.864,98.688-113.864s98.688,50.998,98.688,113.864C386.413,748.481,342.212,799.479,287.447,799.8z M1053.324,799.8
			c-54.487,0-98.688-50.998-98.688-113.864s44.201-113.864,98.688-113.864c54.487,0,98.688,50.998,98.688,113.864
			C1152.29,748.481,1108.089,799.479,1053.324,799.8z M1236.245,667.013h-29.467c-9.174-97.826-85.623-168.39-170.411-157.485
			c-72.001,8.981-128.712,74.733-136.496,157.485H440.9c-9.174-97.826-85.623-168.39-170.411-157.485
			c-72.001,8.981-128.712,74.733-136.496,157.485h-13.9c-36.417,0-64.773-34.961-64.773-76.978v-91.412
			c-0.278-34.319,19.46-64.148,48.093-73.45l216.558-68.318c5.838-1.924,11.12-5.773,14.734-11.547l129.546-195.974
			c18.626-27.584,47.259-43.621,77.561-43.621h409.765c33.359-0.321,64.773,19.245,82.287,51.96l100.634,185.389
			c2.78,5.453,7.228,9.622,11.954,12.188l116.202,61.262c23.352,12.509,38.363,39.451,38.085,69.28v104.241h0.278
			C1301.018,632.052,1272.662,667.013,1236.245,667.013z"/>
	</g>
</g>
</svg>
