<?xml version="1.0" encoding="utf-8"?>
<!-- Generator: Adobe Illustrator 21.0.0, SVG Export Plug-In . SVG Version: 6.00 Build 0)  -->
<svg version="1.1" id="Layer_1" xmlns="http://www.w3.org/2000/svg" xmlns:xlink="http://www.w3.org/1999/xlink" x="0px" y="0px"
	 viewBox="0 0 938.6 864.6" style="enable-background:new 0 0 938.6 864.6;" xml:space="preserve">
<path d="M430.1,581.9c7-6.6,7-17.2,0-23.7c-7-6.5-18.4-6.5-25.4,0c-7,6.6-7,17.2,0,23.7C411.7,588.4,423.1,588.4,430.1,581.9z"/>
<path d="M344.9,188.3c0,101.6,88.7,184.3,197.8,184.3s197.8-82.7,197.8-184.3S651.8,4,542.8,4S344.9,86.7,344.9,188.3z M704.6,188.3
	c0,83.1-72.6,150.8-161.9,150.8s-161.9-67.6-161.9-150.8c0-83.1,72.6-150.8,161.9-150.8S704.6,105.1,704.6,188.3z"/>
<path d="M214,853c7,6.5,18.3,6.6,25.4,0.1l87.2-80c14.8-13.8,19.3-34.2,12.8-52l18.8-16.8c10.1-9.1,23.4-14.1,37.4-14.1h239.1
	c42.4,0,82.5-15.2,112.9-42.7c1.3-1.1-9.5,10.7,163.1-181.5c25.6-28.2,21.8-70.6-8.5-94.4c-30.1-23.6-75.3-20.3-100.9,7.5L695,480.6
	c-13.4-15.4-33.8-24.9-55.9-24.9H438.6c-28.5-11.1-58.8-16.7-90.1-16.7c-86.6,0-162.2,37.3-202.8,107.1c-17.1-3-35.1,1.8-48.1,13.9
	l-85.6,79.9c-7,6.5-7,17.1,0,23.6L214,853z M348.5,472.4c27.5,0,54.2,5.2,79.2,15.3c2.3,0.9,4.7,1.4,7.2,1.4h204.2
	c19.5,0,36,14.8,36,33.5c0,18.5-16.1,33.5-36,33.5H492.4c-9.9,0-18,7.5-18,16.7c0,9.3,8.1,16.7,18,16.7h146.7
	c39.7,0,71.9-30.1,71.9-67c0-2.9-0.2-5.9-0.6-8.8c102.7-98.3,117.1-112.1,117.8-112.8c12.8-14.1,35.6-15.9,50.7-4
	c15.2,11.9,17.1,33.1,4.2,47.3L721.8,624c-23.6,21.1-54.5,32.7-87.2,32.7H395.6c-23.4,0-45.6,8.3-62.4,23.5l-15.3,13.7L177,562.7
	C209.9,505.1,271.7,472.4,348.5,472.4z M123.1,583.6c5.9-5.5,15-6.5,22.3-2.4c3.1,1.8-5.8-5.8,155.8,144.5
	c7.2,6.7,6.8,17.4,0.1,23.6l-74.3,68.2L50.2,651.7L123.1,583.6z"/>
<path d="M521.2,83.8v19.6c-20.9,6.9-36,25.5-36,47.4c0,27.7,24.2,50.3,54,50.3c9.9,0,18,7.5,18,16.7c0,9.2-8.1,16.7-18,16.7
	c-7.7,0-16-4.5-23.4-12.7c-6.4-7.1-17.7-8-25.3-2c-7.6,6-8.6,16.5-2.2,23.6c9.6,10.6,20.9,18.1,32.9,21.8v19.6
	c0,9.3,8.1,16.7,18,16.7s18-7.5,18-16.7v-19.6c20.9-6.9,36-25.5,36-47.4c0-27.7-24.2-50.3-54-50.3c-9.9,0-18-7.5-18-16.7
	c0-9.2,8.1-16.8,18-16.8c6.4,0,13.1,3,19.5,8.8c7.1,6.4,18.5,6.3,25.4-0.4c6.9-6.7,6.7-17.3-0.4-23.7c-9.1-8.2-18.3-12.9-26.5-15.4
	V83.8c0-9.3-8.1-16.8-18-16.8S521.2,74.5,521.2,83.8z"/>
</svg>
