<?xml version="1.0" encoding="utf-8"?>
<!-- Generator: Adobe Illustrator 17.0.0, SVG Export Plug-In . SVG Version: 6.00 Build 0)  -->
<!DOCTYPE svg PUBLIC "-//W3C//DTD SVG 1.1//EN" "http://www.w3.org/Graphics/SVG/1.1/DTD/svg11.dtd">
<svg version="1.1" id="Camada_1" xmlns="http://www.w3.org/2000/svg" xmlns:xlink="http://www.w3.org/1999/xlink" x="0px" y="0px"
	 width="132.081px" height="47.04px" viewBox="0 0 132.081 47.04" enable-background="new 0 0 132.081 47.04" xml:space="preserve">
<g>
	<path d="M23.826,8.62c3.598,3.366,7.149,6.687,10.696,10.005c0,8.943,0,17.862,0,26.835c-2.953,1.44-6.097,2.16-9.366,2.272
		c-0.28,0.01-0.56,0.014-0.838,0.014c-3.288-0.006-6.452-0.714-9.485-2.06c0-9.608,0-19.163,0-28.805
		C17.784,14.169,20.783,11.414,23.826,8.62L23.826,8.62z"/>
	<path d="M47.945,26.929c-3.48-3.255-6.887-6.441-10.305-9.637c0-2.623,0-5.229,0-7.875c-1.039,0-2.044,0-3.106,0
		c0,1.632,0,3.233,0,4.968C29.627,9.795,24.818,5.297,19.978,0.77c1.382-0.302,2.772-0.463,4.155-0.493h0.878
		C37.804,0.511,49.7,11.878,47.945,26.929L47.945,26.929z"/>
	<path d="M16.398,1.674c1.739,1.626,3.425,3.202,5.156,4.82c-6.906,6.34-13.783,12.652-20.759,19.055
		C0.53,20.98,1.413,16.779,3.53,12.854C6.4,7.535,10.705,3.851,16.398,1.674L16.398,1.674z"/>
	<path fill="#E5E136" d="M11.665,43.995C6.283,40.402,2.858,35.544,1.31,29.289c3.419-3.138,6.847-6.285,10.355-9.504
		C11.665,27.894,11.665,35.882,11.665,43.995L11.665,43.995z"/>
	<path d="M37.663,43.703c0-7.423,0-14.715,0-22.137c3.248,3.037,6.415,5.999,9.582,8.961C45.594,36.03,42.43,40.372,37.663,43.703
		L37.663,43.703z"/>
</g>
<g>
	<path d="M126.645,15.355c-0.093-0.862-0.119-1.676-0.278-2.463c-0.499-2.469-1.959-4.117-4.418-4.725
		c-0.925-0.229-1.926-0.281-2.882-0.227c-2.74,0.154-4.854,1.847-5.588,4.383c-0.386,1.333-0.49,2.704-0.353,4.083
		c0.131,1.324,0.405,2.621,1.217,3.715c1.705,2.298,4.051,3.008,6.785,2.587c2.75-0.424,4.601-2.153,5.199-4.841
		C126.512,17.032,126.547,16.163,126.645,15.355L126.645,15.355z M110.644,7.581c-1.22,0-2.346,0-3.53,0
		c-1.735,2.405-3.482,4.826-5.241,7.264c1.434,1.914,2.842,3.788,4.246,5.666c1.399,1.871,2.794,3.745,4.249,5.696
		c-2.116,0-4.105,0-6.108,0c-1.821-2.517-3.634-5.023-5.491-7.591c-1.873,2.582-3.691,5.088-5.496,7.576c-4.735,0-9.424,0-14.155,0
		c0-1.132,0-2.222,0-3.371c3.543,0,7.044,0,10.556,0c2.006-2.72,3.988-5.406,6.006-8.142c-1.728-2.372-3.44-4.721-5.169-7.095
		c-4.69,0-9.383,0-14.153,0c0,6.171,0,12.339,0,18.483c-0.629,0.199-3.694,0.254-5.172,0.11c-3.26-4.679-6.537-9.385-9.815-14.09
		c-0.041,0.009-0.083,0.018-0.124,0.026c0,4.67,0,9.34,0,14.064c-1.609,0-3.134,0-4.724,0c0-7.342,0-14.69,0-22.081
		c1.617,0,3.202,0,4.914,0c3.3,4.777,6.65,9.626,10.001,14.476c0.045-0.007,0.089-0.015,0.134-0.022c0-4.796,0-9.593,0-14.446
		c7.485,0,14.87,0,22.328,0c1.614,2.291,3.256,4.621,4.969,7.054c1.658-2.4,3.271-4.735,4.913-7.112c1.777,0,3.556-0.001,5.336,0
		c3.429,0.002,6.858-0.01,10.286,0.011c1.95,0.012,3.881,0.202,5.713,0.94c3.619,1.458,5.757,4.093,6.465,7.951
		c0.147,0.798,0.219,1.587,0.221,2.372v0.042c-0.001,1.071-0.132,2.133-0.383,3.2c-0.794,3.372-2.799,5.76-5.989,7.033
		c-3.853,1.537-7.771,1.504-11.569-0.189c-3.459-1.542-5.321-4.333-5.802-8.077c-0.24-1.871-0.127-3.711,0.32-5.54
		c0.332-1.36,0.964-2.566,1.831-3.655C110.339,7.974,110.465,7.81,110.644,7.581L110.644,7.581z"/>
	<path d="M56.523,33.125c0-0.97,0-1.852,0-2.78c25.079,0,50.112,0,75.28,0c0,0.463,0,0.911,0,1.36c0,0.455,0,0.909,0,1.421
		C106.678,33.125,81.624,33.125,56.523,33.125L56.523,33.125z"/>
	<path d="M89.632,12.748c0,1.164,0,2.257,0,3.377c-3.522,0-6.989,0-10.508,0c0-1.126,0-2.219,0-3.377
		C82.601,12.748,86.087,12.748,89.632,12.748L89.632,12.748z"/>
	<path d="M56.523,43.852v-6.818h1.782v6.818H56.523L56.523,43.852z M59.973,43.852v-6.818h2.668l1.577,4.65l1.558-4.65h2.674v6.818
		h-1.646l-0.006-5.368l-1.734,5.368h-1.712l-1.726-5.368l-0.006,5.368H59.973L59.973,43.852z M69.864,40.484
		c0-0.695,0.135-1.279,0.403-1.752c0.199-0.348,0.473-0.66,0.819-0.936c0.346-0.276,0.725-0.481,1.137-0.616
		c0.549-0.179,1.182-0.27,1.898-0.27c1.298,0,2.334,0.313,3.115,0.936c0.778,0.625,1.167,1.493,1.167,2.606
		c0,1.103-0.387,1.966-1.159,2.589c-0.772,0.624-1.806,0.935-3.098,0.935c-1.309,0-2.351-0.31-3.123-0.93
		C70.251,42.427,69.864,41.573,69.864,40.484L69.864,40.484z M71.695,40.438c0,0.773,0.231,1.359,0.692,1.759
		c0.461,0.398,1.046,0.598,1.755,0.598c0.711,0,1.292-0.198,1.749-0.594c0.455-0.397,0.682-0.99,0.682-1.782
		c0-0.782-0.221-1.367-0.666-1.751c-0.442-0.386-1.03-0.578-1.765-0.578c-0.733,0-1.325,0.195-1.773,0.584
		C71.92,39.065,71.695,39.653,71.695,40.438L71.695,40.438z M79.79,37.034h3.518c0.698,0,1.216,0.022,1.558,0.067
		c0.344,0.046,0.649,0.14,0.919,0.281c0.27,0.143,0.496,0.332,0.676,0.568c0.18,0.236,0.27,0.503,0.27,0.797
		c0,0.317-0.111,0.611-0.332,0.876c-0.221,0.267-0.522,0.465-0.901,0.598c0.534,0.122,0.944,0.329,1.233,0.621
		c0.287,0.292,0.43,0.635,0.43,1.03c0,0.311-0.092,0.613-0.278,0.906c-0.186,0.294-0.44,0.529-0.764,0.705
		c-0.322,0.175-0.719,0.283-1.192,0.324c-0.295,0.024-1.01,0.04-2.142,0.046H79.79V37.034L79.79,37.034z M81.571,38.167v1.571h1.163
		c0.69,0,1.12-0.008,1.288-0.024c0.303-0.027,0.543-0.108,0.717-0.243c0.174-0.135,0.26-0.311,0.26-0.53
		c0-0.211-0.076-0.381-0.225-0.513c-0.149-0.132-0.373-0.211-0.668-0.238c-0.176-0.016-0.682-0.024-1.515-0.024H81.571
		L81.571,38.167z M81.571,40.872V42.7h1.646c0.639,0,1.046-0.014,1.218-0.041c0.264-0.038,0.479-0.129,0.645-0.273
		c0.166-0.146,0.25-0.338,0.25-0.581c0-0.206-0.063-0.379-0.193-0.522c-0.127-0.143-0.313-0.248-0.555-0.313
		c-0.242-0.065-0.768-0.098-1.577-0.098H81.571L81.571,40.872z M88.602,43.852v-6.818h1.782v6.818H88.602L88.602,43.852z
		 M92.126,43.852v-6.761h1.782V42.7h4.411v1.152H92.126L92.126,43.852z M99.521,43.852v-6.818h1.782v6.818H99.521L99.521,43.852z
		 M110.921,43.852h-1.919l-0.76-1.552h-3.528l-0.731,1.552h-1.884l3.416-6.818h1.882L110.921,43.852L110.921,43.852z
		 M107.665,41.148l-1.223-2.524l-1.188,2.524H107.665L107.665,41.148z M105.809,36.415l0.835-1.39h1.88l-1.659,1.39H105.809
		L105.809,36.415z M111.869,43.852v-6.818h3.741c0.94,0,1.624,0.062,2.05,0.184c0.428,0.122,0.768,0.34,1.024,0.652
		c0.256,0.314,0.385,0.671,0.385,1.074c0,0.513-0.192,0.935-0.58,1.268c-0.387,0.333-0.965,0.543-1.735,0.63
		c0.383,0.173,0.698,0.363,0.946,0.571c0.25,0.208,0.586,0.578,1.007,1.108l1.073,1.33h-2.124l-1.274-1.489
		c-0.457-0.529-0.77-0.862-0.94-1c-0.168-0.136-0.346-0.232-0.534-0.283c-0.19-0.051-0.489-0.076-0.899-0.076h-0.36v2.847H111.869
		L111.869,43.852z M113.65,39.919h1.315c0.852,0,1.382-0.029,1.595-0.084c0.211-0.056,0.379-0.152,0.498-0.289
		c0.121-0.137,0.18-0.308,0.18-0.513c0-0.23-0.08-0.414-0.238-0.557c-0.158-0.141-0.381-0.23-0.668-0.267
		c-0.145-0.016-0.577-0.024-1.296-0.024h-1.386V39.919L113.65,39.919z M120.68,43.852v-6.818h1.782v6.818H120.68L120.68,43.852z
		 M132.081,43.852h-1.919l-0.76-1.552h-3.528l-0.731,1.552h-1.884l3.416-6.818h1.882L132.081,43.852L132.081,43.852z
		 M128.825,41.148l-1.223-2.524l-1.188,2.524H128.825L128.825,41.148z"/>
</g>
</svg>
