<?xml version="1.0" encoding="utf-8"?>
<!-- Generator: Adobe Illustrator 21.0.0, SVG Export Plug-In . SVG Version: 6.00 Build 0)  -->
<svg version="1.1" id="Layer_1" xmlns="http://www.w3.org/2000/svg" xmlns:xlink="http://www.w3.org/1999/xlink" x="0px" y="0px"
	 viewBox="0 0 938.6 864.6" style="enable-background:new 0 0 938.6 864.6;" xml:space="preserve">
<g>
	<g>
		<g>
			<path d="M134.8,101.6c-29.9,0-54.3,27.2-54.3,60.6c0,33.4,24.4,60.6,54.3,60.6s54.3-27.2,54.3-60.6
				C189.1,128.8,164.7,101.6,134.8,101.6z M134.8,179.2c-8.4,0-15.2-7.6-15.2-17s6.8-17,15.2-17c8.4,0,15.2,7.6,15.2,17
				S143.2,179.2,134.8,179.2z"/>
		</g>
	</g>
	<g>
		<g>
			<path d="M903.6,286.9V133c0-29.8-21.7-54.1-48.5-54.1l-610.7-0.3c-4.8-7.7-10.2-15.1-16.4-21.8c-25.5-28.1-59.2-43.3-95.1-42.7
				C61.2,15.1,2.4,81.2,2,161.3c-0.1,23.7,4.9,47.4,14.5,68.4c0.2,0.4,31.8,59.5,31.8,59.5v496c0,29.8,21.7,54.1,48.5,54.1
				l758.3,0.5c26.7,0,48.5-24.3,48.5-54.1V499.2c0,0,22.3-41.7,22.5-42.1c9.5-20.7,14.5-44.1,14.5-67.5
				C940.6,350.9,927.4,314.7,903.6,286.9z M770,122.4l-94.3,105.3l-94.4-105.4L770,122.4z M650.8,255.5L486.5,439l-60.1-67.1
				c0,0,0,0,0,0c0,0,0,0,0,0l-45.1-50.3L545.6,138L650.8,255.5z M323.5,514.4l90.4-100.9l116.2,129.7l-90.4,100.9L323.5,514.4z
				 M345.5,594.6L244.1,707.8L162.9,617l101.4-113.2L345.5,594.6z M253,229.7c9.5-20.7,14.5-44.1,14.5-67.5
				c0-13.8-1.7-27.2-4.9-40.1l247.4,0.1L356.4,293.8l-55-61.4c-6.9-7.7-18-7.7-24.9,0c-6.9,7.7-6.9,20.1,0,27.8l112.5,125.6
				l-90.4,100.9l-73.2-81.8c-6.9-7.7-18-7.7-24.9,0c-6.9,7.7-6.9,20.1,0,27.8l38.9,43.4l-152,169.7V362.4l13.9,26
				c7.1,13.3,19.6,21.3,33.5,21.3s26.4-7.9,33.5-21.3C168.3,388.3,252.8,230.2,253,229.7z M51,209.2c-6.7-14.8-10.1-30.9-10-47.7
				c0.3-56.5,41.7-103.2,92.4-104c25.3-0.3,49.1,10.3,67.1,30.1c6.2,6.8,11.4,14.4,15.6,22.6c0.2,0.4,0.4,0.8,0.6,1.1
				c7.6,15.3,11.7,32.7,11.7,50.7c0,16.6-3.4,32.4-10,47L134.8,366L51,209.2z M96.8,795.7c-5.2,0-9.4-4.7-9.4-10.5v-83.9l50.6-56.5
				l135.3,151L96.8,795.7z M323,795.9l-54-60.3l101.4-113.2L526,796L323,795.9z M464.5,671.9l90.4-100.9l65.7,73.3l-90.4,100.9
				L464.5,671.9z M575.7,796l-20.7-23.1L645.5,672l111.2,124.1L575.7,796z M855.1,796.2l-48.7,0L670.3,644.2l41-45.7
				c6.9-7.7,6.9-20.1,0-27.8c-6.9-7.7-18-7.7-24.9,0l-41,45.7l-78.1-87.2c0,0,0,0,0,0c0,0,0,0,0,0l-56-62.6l66.6-74.4l34.5,38.6
				c3.8,4.3,8.8,6.4,13.8,6.4s10-2.1,13.8-6.4c7.6-8.5,7.6-22.3,0-30.8l-34.5-38.6l214.1-239l35.4,0c5.2,0,9.4,4.7,9.4,10.5v122.5
				c-18.1-9.5-38-14.4-58.6-14.1c-71.8,1.1-130.5,67.2-130.9,147.3c-0.1,23.7,4.9,47.4,14.5,68.4c0.2,0.4,84.7,158.6,84.7,158.6
				c7.1,13.3,19.6,21.3,33.5,21.3c13.9,0,26.4-7.9,33.5-21.3l23.2-43.4v213.4h0C864.5,791.5,860.3,796.2,855.1,796.2z M891.5,436.6
				l-24.7,46.1c0,0,0,0,0,0.1l-59,110.5l-83.8-156.7c-6.7-14.8-10.1-30.9-10-47.7c0.3-56.5,41.7-103.2,92.4-104
				c25.3-0.4,49.1,10.3,67.1,30.1c18,19.8,27.9,46.3,27.9,74.5C901.5,406.1,898.1,421.9,891.5,436.6z"/>
		</g>
	</g>
	<g>
		<g>
			<path d="M807.8,328.9c-29.9,0-54.3,27.2-54.3,60.6c0,33.4,24.4,60.6,54.3,60.6c29.9,0,54.3-27.2,54.3-60.6
				C862.1,356.1,837.7,328.9,807.8,328.9z M807.8,406.6c-8.4,0-15.2-7.6-15.2-17s6.8-17,15.2-17c8.4,0,15.2,7.6,15.2,17
				C823,398.9,816.2,406.6,807.8,406.6z"/>
		</g>
	</g>
</g>
</svg>
