<?xml version="1.0" encoding="utf-8"?>
<!-- Generator: Adobe Illustrator 21.0.0, SVG Export Plug-In . SVG Version: 6.00 Build 0)  -->
<svg version="1.1" id="Layer_1" xmlns="http://www.w3.org/2000/svg" xmlns:xlink="http://www.w3.org/1999/xlink" x="0px" y="0px"
	 viewBox="0 0 938.6 864.6" style="enable-background:new 0 0 938.6 864.6;" xml:space="preserve">
<path d="M764.7,439c38.3,0,69.5-22.7,69.5-50.7V101.3h23.2c12.8,0,23.2-7.6,23.2-16.9V16.9c0-9.3-10.4-16.9-23.2-16.9H23.2
	C10.4,0,0,7.6,0,16.9v67.5c0,9.3,10.4,16.9,23.2,16.9h23.2v84.4c0,9.3,10.4,16.9,23.2,16.9s23.2-7.6,23.2-16.9v-84.4h695.2v287.1
	c0,9.3-10.4,16.9-23.2,16.9H741c-8.3-137-125.8-270.2-300.7-270.2c-178.2,0-292.6,136.3-300.7,270.2h-23.7
	c-12.8,0-23.2-7.6-23.2-16.9v-67.5c0-9.3-10.4-16.9-23.2-16.9s-23.2,7.6-23.2,16.9v67.5c0,27.9,31.2,50.7,69.5,50.7h23.7
	c1.5,26.7,6.2,54.6,13.2,78.2c-33.9,3.4-60.1,24.6-60.1,50.2v33.8c0,9.3,10.4,16.9,23.2,16.9h31.2c17.8,55.5,64.1,106,127.5,139.1
	L233.1,842c-2.5,5.2-1.5,10.9,2.9,15.4c4.3,4.5,11.4,7.2,18.9,7.2h370.8c7.5,0,14.6-2.7,18.9-7.2c4.3-4.5,5.4-10.2,2.9-15.4
	L606,757.2C669.4,724,715.6,673.5,733.5,618h31.2c12.8,0,23.2-7.6,23.2-16.9v-33.8c0-25.6-26.2-46.8-60.1-50.2
	c7-23.6,11.8-51.5,13.2-78.2H764.7z M46.3,67.5V33.8h787.9v33.8H46.3z M440.3,168.9c140.6,0,254.9,113.6,254.9,253.3
	c0,31.8-5.7,67.4-14.8,94.6h-48.6c10.6-28.3,17-63,17-94.6c0-99.9-76.8-219.5-208.6-219.5c-130,0-208.6,117.5-208.6,219.5
	c0,31.6,6.4,66.3,17,94.6h-48.6c-9.1-27.2-14.8-62.8-14.8-94.6C185.4,282.5,299.7,168.9,440.3,168.9z M602.5,422.2
	c0,31.8-7.4,68.2-18.9,94.6H297c-11.5-26.4-18.9-62.7-18.9-94.6c0-77,57.7-185.7,162.2-185.7C544.7,236.4,602.5,344.9,602.5,422.2z
	 M287.8,830.8l27.3-55.8c39.4,14.4,82.2,22,125.2,22s85.8-7.6,125.2-22l27.3,55.8H287.8z M440.3,763.3
	c-115.8,0-215-65.2-245.4-145.2h490.7C655.3,698.1,556.1,763.3,440.3,763.3z M741.5,567.4v16.9H139v-16.9c0-9.3,10.4-16.9,23.2-16.9
	h556.2C731.1,550.5,741.5,558.1,741.5,567.4z"/>
</svg>
